<svg xmlns="http://www.w3.org/2000/svg" width="10" height="10" viewBox="0 0 12 14">
    <g fill="#FFF" fill-rule="nonzero">
        <path d="M5.207.823H1a1 1 0 0 0-1 1v10.292a1 1 0 0 0 1 1h4.207a.939.939 0 0 0 0-1.878H2.878a1 1 0 0 1-1-1V3.701a1 1 0 0 1 1-1h2.33a.939.939 0 1 0 0-1.878z"/>
        <path d="M4.512 6.09H9.78L7.585 3.897a.62.62 0 0 1 0-.878.62.62 0 0 1 .878 0l3.244 3.244a1 1 0 0 1 0 1.414L8.463 10.92a.62.62 0 1 1-.878-.878L9.78 7.847H4.512a.878.878 0 1 1 0-1.756z"/>
    </g>
</svg>
