<?xml version="1.0" encoding="UTF-8"?>
<svg width="20px" height="20px" viewBox="0 0 20 20" version="1.1" xmlns="http://www.w3.org/2000/svg" xmlns:xlink="http://www.w3.org/1999/xlink">
    <title>dls/icon/search</title>
    <g id="Symbols" stroke="none" stroke-width="1" fill="none" fill-rule="evenodd">
        <g id="search_field/search" transform="translate(-290.000000, -8.000000)" fill="#99A6B5" fill-rule="nonzero">
            <g id="search" transform="translate(290.000000, 8.000000)">
                <path d="M19.9995117,18.9536132 L13.2602539,12.2143554 C14.3198242,10.9243163 14.9575195,9.2749023 14.9575195,7.4785156 C14.9575195,3.3549804 11.6020507,0 7.4785156,0 C3.3549805,0 -7.10542736e-14,3.3549804 -7.10542736e-14,7.4785155 C-7.10542736e-14,11.6020506 3.3549805,14.9575194 7.4785156,14.9575194 C9.2749023,14.9575194 10.9243164,14.3198241 12.2143554,13.2602538 L18.9536133,19.9995116 L19.9995117,18.9536132 Z M7.4785156,13.4780272 C4.1708984,13.4780272 1.4790039,10.786621 1.4790039,7.4785155 C1.4790039,4.1708983 4.1708984,1.4790038 7.4785156,1.4790038 C10.7866211,1.4790038 13.4780273,4.1708983 13.4780273,7.4785155 C13.4780273,10.786621 10.7866211,13.4780272 7.4785156,13.4780272 Z"></path>
            </g>
        </g>
    </g>
</svg>